<svg width="200" height="200" viewBox="0 0 200 200" fill="none" xmlns="http://www.w3.org/2000/svg">
<path d="M190 0H10C4.47715 0 0 4.47715 0 10V190C0 195.523 4.47715 200 10 200H190C195.523 200 200 195.523 200 190V10C200 4.47715 195.523 0 190 0Z" fill="black"/>
<path d="M31.4178 126.504C30.9858 126.504 29.9778 126.456 28.3938 126.36C26.8578 126.264 25.1058 126.168 23.1378 126.072C21.1698 126.024 19.2978 126 17.5218 126C16.6578 126 15.8658 126.024 15.1458 126.072C14.4738 126.12 13.7538 126.168 12.9858 126.216C12.2178 126.312 11.2338 126.36 10.0338 126.36C9.45776 126.36 9.02576 126.288 8.73776 126.144C8.44976 126.048 8.30576 125.856 8.30576 125.568C8.30576 124.8 9.16976 124.368 10.8978 124.272C12.4338 124.224 13.5858 124.008 14.3538 123.624C15.1698 123.192 15.7938 122.592 16.2258 121.824C16.6578 121.008 17.0658 120.024 17.4498 118.872L28.2498 85.68C28.6338 84.528 28.4898 83.688 27.8178 83.16C27.1938 82.584 26.3298 82.176 25.2258 81.936C24.1218 81.648 23.0418 81.408 21.9858 81.216C21.2658 81.072 20.7858 80.88 20.5458 80.64C20.3538 80.4 20.2578 80.112 20.2578 79.776C20.2578 79.488 20.4738 79.296 20.9058 79.2C21.3378 79.056 21.8418 78.984 22.4178 78.984C24.3378 78.984 26.0898 79.032 27.6738 79.128C29.2578 79.224 30.7938 79.272 32.2818 79.272C33.2418 79.272 34.0578 79.248 34.7298 79.2C35.4498 79.104 36.1698 79.032 36.8898 78.984C37.6578 78.888 38.5938 78.84 39.6978 78.84C44.2098 78.84 48.1458 79.608 51.5058 81.144C54.8658 82.632 57.4818 84.864 59.3538 87.84C61.2738 90.768 62.2338 94.44 62.2338 98.856C62.2338 102.504 61.4898 105.984 60.0018 109.296C58.5138 112.608 56.4018 115.56 53.6658 118.152C50.9298 120.744 47.6658 122.784 43.8738 124.272C40.1298 125.76 35.9778 126.504 31.4178 126.504ZM31.7778 124.344C35.3778 124.344 38.6418 123.6 41.5698 122.112C44.5458 120.624 47.1138 118.608 49.2737 116.064C51.4338 113.472 53.0898 110.592 54.2418 107.424C55.4418 104.208 56.0418 100.92 56.0418 97.56C56.0418 93.864 55.4178 90.816 54.1698 88.416C52.9218 86.016 51.1218 84.216 48.7698 83.016C46.4658 81.816 43.6818 81.216 40.4178 81.216C38.4018 81.216 36.9618 81.36 36.0978 81.648C35.2338 81.888 34.6578 82.296 34.3698 82.872C34.1298 83.4 33.8658 84.072 33.5778 84.888L23.7858 115.848C23.1138 117.96 23.0178 119.64 23.4978 120.888C23.9778 122.136 24.9138 123.024 26.3058 123.552C27.7458 124.08 29.5698 124.344 31.7778 124.344ZM86.4944 127.008C84.5264 127.008 82.4864 126.6 80.3744 125.784C78.2624 124.92 76.2944 123.696 74.4704 122.112C72.6464 120.48 71.1584 118.536 70.0064 116.28C68.9024 114.024 68.3504 111.504 68.3504 108.72C68.3504 104.4 69.1184 100.392 70.6544 96.696C72.2384 93 74.3984 89.76 77.1344 86.976C79.8704 84.192 82.9904 82.032 86.4944 80.496C90.0464 78.912 93.7664 78.12 97.6544 78.12C98.9984 78.12 100.318 78.24 101.614 78.48C102.958 78.672 104.302 79.008 105.646 79.488C106.558 79.776 107.35 80.04 108.022 80.28C108.694 80.52 109.27 80.64 109.75 80.64C109.99 80.64 110.23 80.592 110.47 80.496C110.71 80.352 110.974 80.208 111.262 80.064C111.55 79.968 111.838 79.872 112.126 79.776C112.414 79.632 112.678 79.56 112.918 79.56C113.35 79.56 113.566 79.704 113.566 79.992C113.614 80.28 113.566 80.52 113.422 80.712C112.894 81.432 112.294 82.392 111.622 83.592C110.95 84.792 110.326 86.04 109.75 87.336C109.222 88.632 108.838 89.832 108.598 90.936C108.55 91.272 108.382 91.608 108.094 91.944C107.806 92.232 107.542 92.376 107.302 92.376C106.87 92.376 106.558 92.184 106.366 91.8C106.222 91.368 106.174 90.936 106.222 90.504C106.462 89.4 106.534 88.296 106.438 87.192C106.39 86.04 105.958 84.936 105.142 83.88C104.326 82.824 103.246 81.984 101.902 81.36C100.606 80.688 99.1184 80.352 97.4384 80.352C95.3744 80.352 93.2624 80.832 91.1024 81.792C88.9424 82.752 86.8784 84.12 84.9104 85.896C82.9904 87.624 81.2384 89.688 79.6544 92.088C78.1184 94.488 76.8944 97.152 75.9824 100.08C75.1184 102.96 74.6864 106.032 74.6864 109.296C74.6864 112.224 75.0944 114.672 75.9104 116.64C76.7744 118.608 77.8784 120.192 79.2224 121.392C80.6144 122.592 82.1024 123.456 83.6864 123.984C85.3184 124.512 86.9024 124.776 88.4384 124.776C90.8864 124.776 92.8784 124.392 94.4144 123.624C95.9504 122.808 97.2464 121.752 98.3024 120.456C99.3584 119.112 100.366 117.624 101.326 115.992C101.566 115.608 101.806 115.296 102.046 115.056C102.286 114.768 102.598 114.624 102.982 114.624C103.222 114.624 103.366 114.744 103.414 114.984C103.462 115.224 103.486 115.584 103.486 116.064C103.486 116.4 103.27 117.144 102.838 118.296C102.406 119.4 101.878 120.6 101.254 121.896C100.63 123.192 100.03 124.32 99.4544 125.28C98.9264 126.192 98.5424 126.648 98.3024 126.648C98.1104 126.648 97.8944 126.552 97.6544 126.36C97.4144 126.216 97.1744 126.048 96.9344 125.856C96.7424 125.664 96.5024 125.52 96.2144 125.424C95.9744 125.28 95.7104 125.208 95.4224 125.208C95.0864 125.208 94.6784 125.28 94.1984 125.424C93.7184 125.568 93.1424 125.76 92.4704 126C91.7504 126.24 90.8864 126.456 89.8784 126.648C88.8704 126.888 87.7424 127.008 86.4944 127.008ZM109.956 126.36C109.38 126.36 108.948 126.288 108.66 126.144C108.372 126.048 108.228 125.856 108.228 125.568C108.228 125.232 108.444 124.968 108.876 124.776C109.356 124.584 110.004 124.416 110.82 124.272C112.596 123.936 114.012 123.384 115.068 122.616C116.124 121.848 116.916 120.576 117.444 118.8L127.092 87.336C127.764 85.224 127.788 83.664 127.164 82.656C126.588 81.648 125.1 81.048 122.7 80.856C121.98 80.76 121.5 80.64 121.26 80.496C121.02 80.352 120.9 80.112 120.9 79.776C120.9 79.488 121.116 79.296 121.548 79.2C122.028 79.056 122.556 78.984 123.132 78.984C123.372 78.984 123.876 78.984 124.644 78.984C125.412 78.984 126.252 79.008 127.164 79.056C128.076 79.056 128.868 79.056 129.54 79.056C130.068 79.056 130.836 79.032 131.844 78.984C132.852 78.936 133.884 78.888 134.94 78.84C136.044 78.792 136.908 78.768 137.532 78.768C140.556 78.768 143.22 79.296 145.524 80.352C147.828 81.408 149.604 82.92 150.852 84.888C152.148 86.856 152.796 89.232 152.796 92.016C152.796 94.32 152.244 96.432 151.14 98.352C150.084 100.272 148.62 101.928 146.748 103.32C144.924 104.712 142.836 105.792 140.484 106.56C138.132 107.328 135.684 107.712 133.14 107.712C132.66 107.712 132.036 107.664 131.268 107.568C130.5 107.424 130.116 107.16 130.116 106.776C130.116 106.488 130.284 106.272 130.62 106.128C130.956 105.984 131.34 105.888 131.772 105.84C132.444 105.744 133.116 105.648 133.788 105.552C134.46 105.408 135.108 105.264 135.732 105.12C137.796 104.544 139.644 103.68 141.276 102.528C142.908 101.328 144.204 99.816 145.164 97.992C146.172 96.12 146.676 93.936 146.676 91.44C146.676 89.424 146.244 87.6 145.38 85.968C144.564 84.336 143.34 83.04 141.708 82.08C140.076 81.12 138.06 80.64 135.66 80.64C135.276 80.64 134.964 80.76 134.724 81C134.484 81.192 134.268 81.504 134.076 81.936C133.932 82.368 133.74 82.944 133.5 83.664L122.988 118.008C122.364 119.928 122.316 121.368 122.844 122.328C123.372 123.24 124.572 123.888 126.444 124.272C127.164 124.416 127.644 124.584 127.884 124.776C128.124 124.968 128.244 125.232 128.244 125.568C128.244 125.856 128.028 126.048 127.596 126.144C127.164 126.288 126.66 126.36 126.084 126.36C124.884 126.36 123.9 126.312 123.132 126.216C122.364 126.12 121.668 126.048 121.044 126C120.42 125.904 119.676 125.856 118.812 125.856C117.084 125.856 115.62 125.928 114.42 126.072C113.268 126.264 111.78 126.36 109.956 126.36ZM169.242 126.576C169.05 126.576 168.858 126.456 168.666 126.216C168.474 126.024 168.378 125.808 168.378 125.568V110.376C168.378 110.136 168.282 110.016 168.09 110.016H153.546C153.306 110.016 153.066 109.92 152.826 109.728C152.634 109.536 152.538 109.344 152.538 109.152C152.538 108.912 152.586 108.576 152.682 108.144C152.826 107.712 153.018 107.328 153.258 106.992C153.498 106.608 153.834 106.416 154.266 106.416H167.874C168.114 106.416 168.258 106.368 168.306 106.272C168.354 106.176 168.378 106.032 168.378 105.84V93.528C168.378 93 168.618 92.568 169.098 92.232C169.578 91.896 170.082 91.656 170.61 91.512C171.186 91.368 171.546 91.296 171.69 91.296C171.93 91.296 172.146 91.392 172.338 91.584C172.578 91.776 172.698 91.992 172.698 92.232V105.984C172.698 106.224 172.722 106.368 172.77 106.416C172.818 106.416 172.89 106.416 172.986 106.416H187.602C187.842 106.416 188.082 106.536 188.322 106.776C188.562 106.968 188.634 107.184 188.538 107.424C188.346 108.048 188.082 108.648 187.746 109.224C187.458 109.752 186.978 110.016 186.306 110.016H172.986C172.794 110.016 172.698 110.112 172.698 110.304V124.848C172.698 125.328 172.458 125.712 171.978 126C171.498 126.24 170.97 126.384 170.394 126.432C169.866 126.528 169.482 126.576 169.242 126.576Z" fill="white"/>
</svg>
